<?xml version="1.0" encoding="UTF-8" standalone="no"?>
<!-- Created with Inkscape (http://www.inkscape.org/) -->

<svg
   width="2560"
   height="1440"
   viewBox="0 0 2560 1440"
   version="1.1"
   id="svg1"
   xml:space="preserve"
   xmlns:xlink="http://www.w3.org/1999/xlink"
   xmlns="http://www.w3.org/2000/svg"
   xmlns:svg="http://www.w3.org/2000/svg"><defs
     id="defs1"><linearGradient
       id="swatch9"><stop
         style="stop-color:#f38ba8;stop-opacity:1;"
         offset="0"
         id="stop9" /></linearGradient><linearGradient
       xlink:href="#swatch9"
       id="linearGradient10"
       gradientUnits="userSpaceOnUse"
       x1="255.58238"
       y1="174.81833"
       x2="453.69659"
       y2="174.81833"
       gradientTransform="translate(-18.070964,3.1964028)" /><linearGradient
       xlink:href="#swatch9"
       id="linearGradient11"
       gradientUnits="userSpaceOnUse"
       x1="255.58238"
       y1="174.81833"
       x2="453.69659"
       y2="174.81833" /></defs><rect
     style="fill:#1e1e2e;fill-opacity:1;stroke-width:0;paint-order:stroke fill markers"
     id="rect1"
     width="2617.8408"
     height="1496.1447"
     x="-28.92041"
     y="-28.072327"
     ry="17.496153" /><g
     style="opacity:1;fill:#3f8ba8;fill-opacity:1;stroke:url(#linearGradient11);stroke-width:0;stroke-dasharray:none;stroke-dashoffset:0"
     id="g1"
     transform="matrix(1.5625,0,0,1.5625,754.11394,441.86317)"><path
       d="m 281.57055,161.11611 -43.56385,64.34078 c -1.27121,2.06366 0.0413,4.74642 2.4475,5.01057 l 85.95555,9.10899 z m -41.00078,41.4259 31.07458,-50.49775 -31.63177,-18.97741 c -1.102,-0.66037 -2.50116,0.13207 -2.50116,1.41567 v 67.19688 c 0,1.66331 2.18335,2.28241 3.05835,0.86261 z m 4.47401,44.64522 80.23508,36.18008 c 2.18748,1.01119 4.68451,-0.59021 4.68451,-2.99644 v -27.1041 l -84.01158,-9.20392 c -1.83666,-0.20637 -2.57132,2.30717 -0.90801,3.12438 z m 33.52209,-106.39404 32.98966,-58.995896 c 1.79125,-2.91389 -1.48171,-6.29416 -4.44925,-4.59783 l -62.2441,40.699486 c -1.01945,0.66863 -0.98643,2.17097 0.0537,2.79832 z m 58.00121,4.20161 h 45.07445 L 342.19262,75.499004 c -1.29185,-2.09668 -3.4587,-3.14502 -5.62554,-3.14502 -2.16684,0 -4.33368,1.04834 -5.62553,3.14502 L 291.49263,144.9948 Z m 96.55451,-11.92795 -31.63178,18.98154 31.07459,50.49775 c 0.87086,1.4198 3.05834,0.8007 3.05834,-0.86674 v -67.19688 c 0,-1.2836 -1.39916,-2.07604 -2.50115,-1.41567 z m -38.55329,7.72634 33.65003,-20.10004 c 1.04421,-0.62736 1.0731,-2.1297 0.0537,-2.79833 l -62.2441,-40.695356 c -2.96755,-1.69633 -6.24051,1.68394 -4.44925,4.59783 z m 32.61407,103.26966 -84.01158,9.19979 v 27.10411 c 0,2.41035 2.49703,4.00762 4.68451,2.99643 l 80.23508,-36.18008 c 1.66331,-0.81308 0.92865,-3.32662 -0.90801,-3.12025 z m -35.61876,-82.94674 -44.83507,78.46034 85.95555,-9.10899 c 2.40623,-0.26828 3.71871,-2.94691 2.4475,-5.01057 z m -54.99653,-2.91389 h -41.45066 l 41.45066,72.53764 41.45067,-72.53764 z"
       id="path1"
       style="fill:#f38ba8;fill-opacity:1;stroke:url(#linearGradient10);stroke-width:0;stroke-dasharray:none;stroke-dashoffset:0" /></g><g
     id="layer1"><rect
       style="fill:#f38ba8;fill-opacity:1;stroke-width:22.5435"
       id="rect1-0"
       width="2559.4963"
       height="150"
       x="0.25186521"
       y="0"
       ry="0" /><rect
       style="fill:#f38ba8;fill-opacity:1;stroke-width:22.5435"
       id="rect1-0-3"
       width="2559.4963"
       height="150"
       x="0.25183105"
       y="1290"
       ry="0" /><rect
       style="fill:#1e1e2e;fill-opacity:1;stroke-width:3.18085"
       id="rect1-0-3-1"
       width="382.17273"
       height="20"
       x="83.075569"
       y="65"
       ry="9.3434992" /><rect
       style="fill:#1e1e2e;fill-opacity:1;stroke-width:3.85695"
       id="rect1-0-3-1-2"
       width="561.90247"
       height="20"
       x="1928.6017"
       y="65"
       ry="9.3434992" /><rect
       style="fill:#1e1e2e;fill-opacity:1;stroke-width:4.9074"
       id="rect1-0-3-1-9"
       width="909.65747"
       height="20"
       x="480.2207"
       y="65"
       ry="9.3434992" /><rect
       style="fill:#1e1e2e;fill-opacity:1;stroke-width:3.7072"
       id="rect1-0-3-1-9-8"
       width="519.11914"
       height="20"
       x="1401.5677"
       y="65"
       ry="9.3434992" /><text
       xml:space="preserve"
       style="font-style:normal;font-variant:normal;font-weight:bold;font-stretch:normal;font-size:124.166px;font-family:'Liberation Sans';-inkscape-font-specification:'Liberation Sans Bold';writing-mode:lr-tb;direction:ltr;fill:#1e1e2e;fill-opacity:1;stroke-width:71.2301"
       x="730.37915"
       y="1410.9497"
       id="text1"><tspan
         id="tspan1"
         x="730.37915"
         y="1410.9497"
         style="font-style:normal;font-variant:normal;font-weight:500;font-stretch:ultra-condensed;font-family:GurbaniBoliLite;-inkscape-font-specification:'GurbaniBoliLite Medium Ultra-Condensed';stroke-width:71.2301">クリティカルヒット</tspan></text><path
       style="fill:#f5c2e7;fill-opacity:1;stroke-width:6.884"
       d="m 862.12071,1186.2969 c 0,0 744.66559,0 744.65819,0 -0.01,0 -744.65819,0 -744.65819,0 z"
       id="path2" /><rect
       style="fill:#1e1e2e;fill-opacity:1;stroke-width:6.884;paint-order:stroke fill markers"
       id="rect8"
       width="35.236542"
       height="213.18108"
       x="198.49918"
       y="1130.5057"
       ry="17.618271" /><rect
       style="fill:#1e1e2e;fill-opacity:1;stroke-width:6.884;paint-order:stroke fill markers"
       id="rect8-7"
       width="35.236542"
       height="213.18108"
       x="466.22134"
       y="1155.9832"
       ry="17.618271" /><rect
       style="fill:#1e1e2e;fill-opacity:1;stroke-width:6.884;paint-order:stroke fill markers"
       id="rect8-5"
       width="35.236542"
       height="213.18108"
       x="2022.6406"
       y="1132.7283"
       ry="17.618271" /><rect
       style="fill:#1e1e2e;fill-opacity:1;stroke-width:6.884;paint-order:stroke fill markers"
       id="rect8-0"
       width="35.236542"
       height="213.18108"
       x="1916.3324"
       y="1194.1877"
       ry="17.618271" /><rect
       style="fill:#1e1e2e;fill-opacity:1;stroke-width:6.884;paint-order:stroke fill markers"
       id="rect8-05"
       width="35.236542"
       height="213.18108"
       x="341.64136"
       y="1104.4901"
       ry="17.618271" /><rect
       style="fill:#1e1e2e;fill-opacity:1;stroke-width:6.884;paint-order:stroke fill markers"
       id="rect8-1"
       width="35.236542"
       height="213.18108"
       x="633.98907"
       y="1116.1176"
       ry="17.618271" /><rect
       style="fill:#1e1e2e;fill-opacity:1;stroke-width:6.884;paint-order:stroke fill markers"
       id="rect8-3"
       width="35.236542"
       height="213.18108"
       x="2216.6289"
       y="1162.5997"
       ry="17.618271" /><rect
       style="fill:#1e1e2e;fill-opacity:1;stroke-width:6.884;paint-order:stroke fill markers"
       id="rect8-6"
       width="35.236542"
       height="213.18108"
       x="2359.4807"
       y="1127.7174"
       ry="17.618271" /><rect
       style="fill:#1e1e2e;fill-opacity:1;stroke-width:6.884;paint-order:stroke fill markers"
       id="rect8-00"
       width="35.236542"
       height="213.18108"
       x="2100.3542"
       y="1202.4653"
       ry="17.618271" /></g></svg>
